<?xml version="1.0" encoding="UTF-8" standalone="no"?>
<!-- Created with Inkscape (http://www.inkscape.org/) -->

<svg
   xmlns:dc="http://purl.org/dc/elements/1.1/"
   xmlns:cc="http://creativecommons.org/ns#"
   xmlns:rdf="http://www.w3.org/1999/02/22-rdf-syntax-ns#"
   xmlns:svg="http://www.w3.org/2000/svg"
   xmlns="http://www.w3.org/2000/svg"
   xmlns:sodipodi="http://sodipodi.sourceforge.net/DTD/sodipodi-0.dtd"
   xmlns:inkscape="http://www.inkscape.org/namespaces/inkscape"
   width="136"
   height="159"
   viewBox="0 0 136 159"
   id="svg4154"
   version="1.1"
   inkscape:version="0.91 r13725"
   sodipodi:docname="penLogo.svg">
  <defs
     id="defs4156" />
  <sodipodi:namedview
     id="base"
     pagecolor="#ffffff"
     bordercolor="#666666"
     borderopacity="1.0"
     inkscape:pageopacity="0.0"
     inkscape:pageshadow="2"
     inkscape:zoom="3.959798"
     inkscape:cx="173.46689"
     inkscape:cy="64.027114"
     inkscape:document-units="px"
     inkscape:current-layer="layer1"
     showgrid="false"
     units="px"
     inkscape:window-width="1920"
     inkscape:window-height="1051"
     inkscape:window-x="1920"
     inkscape:window-y="0"
     inkscape:window-maximized="1" />
  <metadata
     id="metadata4159">
    <rdf:RDF>
      <cc:Work
         rdf:about="">
        <dc:format>image/svg+xml</dc:format>
        <dc:type
           rdf:resource="http://purl.org/dc/dcmitype/StillImage" />
        <dc:title />
      </cc:Work>
    </rdf:RDF>
  </metadata>
  <g
     inkscape:label="Layer 1"
     inkscape:groupmode="layer"
     id="layer1"
     transform="translate(0,-893.36216)">
    <path
       inkscape:connector-curvature="0"
       id="path4589"
       d="m 27.959172,912.05887 c -6.08203,0.10353 -13.94141,3.90821 -19.3789095,6.97071 -8.70000004,4.9 -9.10078004,10.99921 -8.30078004,12.6992 1.00000004,1.60003 6.60000004,12.00159 11.99999954,20.10157 5.4,8.20002 10.20039,17.89961 10.90039,19.59961 0.20001,0.49999 0.60039,1.60002 0.90039,3 2.6,-3.70001 5.79922,-6.7996 9.69922,-9.09959 5.5,-3.20001 11.79961,-4.50119 18.59961,-4.20117 -1.59999,-2.60002 -3.10039,-5.30041 -3.90038,-7.40039 -1.8,-5.4 -8.49845,-27.49845 -12.39845,-36.89845 -1.4625,-3.5625 -4.47187,-4.83359 -8.12109,-4.77149 z m 102.326178,45.50585 c -0.075,0.0643 -0.0317,0.38948 0.19336,1.06447 5,15.29998 -10.9,22.59961 -19,31.09961 -3,3.10001 -2.6,6.60118 0.5,9.70118 6,6.10002 24.00039,11.19922 12.90039,20.69922 -7.8,6.6 -19.99922,7.2008 -28.699228,12.8008 -1.2,0.8 -1.2996,2.7996 -0.0996,3.5996 8.499998,6 20.299208,4.5004 28.699218,9.9004 -14.5,4.4 -29.699608,1.4996 -44.599608,0.1 0.10001,-0.4 0,-0.8008 0,-0.8008 -1.9,-11.6 -2.10117,-14.0984 -1.20117,-19.8985 0.9,-5.7999 0,-6.3007 0,-6.3007 -9,-12.3 -19.89844,-35.59963 -19.89844,-35.59963 -1.4,-2.4 -7.20078,-3.40078 -14.30078,-0.30085 -7.4,3.29998 -6.90039,7.80079 -6.90039,7.80079 l 12.5,36.99999 c 0.4,1.2 2.5,1.6992 2.5,1.6992 11.7,3.4 21.29961,15.1996 22.59961,17.0996 1.3,1.9 2.20117,1.1016 2.20117,1.1016 l -13.70116,-30.7012 c -1,-0.2 -2.09922,-1.1 -2.69922,-2.5 -0.9,-1.9 -0.49922,-3.9992 0.80078,-4.6992 1.3,-0.6 3.19961,0.4004 4.09961,2.4004 0.7,1.5 0.6,3 0,4 l 13.09961,29.4999 -0.30077,0 c -2.9,-0.1999 0.1008,3.5001 8.30078,4.5001 18.199998,2.3 25.399998,2.1984 42.999998,-1.6016 1.8,-0.4 1.79961,-2.6984 0.59961,-3.8984 -7.8,-7.9 -19.2,-6.3016 -28.5,-10.6016 11.9,-4.7 44.39961,-16 29.09961,-28 -3.5,-2.8 -8.2,-4.1 -12,-6.5 -9.7,-6.30002 2.9,-12.09846 7,-15.89843 7.1,-6.40003 8.9,-13.70117 6,-22.70117 -0.675,-2.10002 -1.96836,-4.25665 -2.19336,-4.06446 z m -79.232428,5.72852 c -5.83653,0.0915 -11.26172,1.43633 -16.07422,4.23632 -3.8,2.30003 -7.09922,5.29962 -9.69922,9.09963 0.9,3.39999 2.1,8.50076 2.5,9.30077 0.4,1.2 1.59961,2.89962 2.59962,3.09963 0.99999,0.19994 1.70116,1.19921 1.70116,1.19921 1.4,2.79999 5.59961,2.90037 5.59961,2.90037 0,0 -3.70117,-5.99883 7.79884,-10.79883 11.49999,-4.69999 13.99999,1.00003 13.99999,1.00003 3.6,-3.40003 1.10157,-7.40039 1.10157,-7.40039 0,0 0.89843,-1.7 -0.60157,-3.5 -0.9,-1.10003 -3.89843,-4.99963 -6.39844,-9.09962 -0.84999,-0.0378 -1.69355,-0.0503 -2.52734,-0.0378 z"
       style="fill:#000000;fill-opacity:1;stroke-width:0.26458332"
       sodipodi:nodetypes="ssccccccccsccccccccccsccccccscccccccccccccccccccccccccccccccc" />
    <g
       transform="matrix(0.30637504,0,0,0.30637504,11.588962,866.4098)"
       id="g50"
       style="fill:#1b4abf;fill-opacity:0.94117647">
      <title
         id="title52">Layer 1</title>
      <path
         style="fill:#1b4abf;fill-opacity:0.94117647"
         inkscape:connector-curvature="0"
         d="m 340.46014,210.87721 c 4.67517,75.38451 -11.56558,104.98284 -23.28399,119.54659 -31.73319,39.445 -92.01836,40.39462 -129.36212,6.87866 -37.3389,-33.51831 -58.12646,-96.42981 -3.05906,-164.524 55.06208,-68.09699 202.24204,-83.071474 202.24204,-83.071474 0,0 -51.2143,45.782914 -46.53687,121.170224 z"
         id="path54" />
    </g>
  </g>
</svg>
